# xmcd
#
# Track frame offsets:
#   150
#   10780
#   21475
#   32427
#   45057
#   56420
#   69617
#   83022
#   97395
#   112432
#   123932
#   142932
#   156327
#   169787
#   183475
#   204997
#   214630
#   227350
#   242237
#   255832
#   272717
#   286495
#
# Disc length: 4017 seconds
#
# Revision: 8
# Processed by: cddbd v1.5.2PL0 Copyright (c) Steve Scherf et al.
# Submitted via: Media_Universe 3.0
#
DISCID=2d0faf16
DTITLE=Waylon Jennings - Waylon Jennings - Ultimate Waylon Jennings
DYEAR=2004
DGENRE=Country
TTITLE0=Waylon Jennings - Only Daddy That'll Walk That Line
TTITLE1=Waylon Jennings - The Taker
TTITLE2=Waylon Jennings - This Time
TTITLE3=Waylon Jennings - I'm A Ramblin' Man
TTITLE4=Waylon Jennings - Rainy Day Woman
TTITLE5=Waylon Jennings - Are You Sure Hank Done It This Way
TTITLE6=Waylon Jennings - Good Hearted Woman Featuring Waylon Jennings and Willie Nelson
TTITLE7=Waylon Jennings - Are You Ready For The Country
TTITLE8=Waylon Jennings - Luckenbach, Texas ( Back To The Basics Of Love )
TTITLE9=Waylon Jennings - Mammas Don't Let Your Babies Grow Up To Be Cowboys Featuring Waylon Jennings and Willie Nelson
TTITLE10=Waylon Jennings - I've Always Been Crazy
TTITLE11=Waylon Jennings - Don't You Think This Outlaw Bit's Done Got Out Of Hand
TTITLE12=Waylon Jennings - Amanda
TTITLE13=Waylon Jennings - Come With Me
TTITLE14=Waylon Jennings - I Ain't Living Long Like This
TTITLE15=Waylon Jennings - Theme from The Dukes Of Hazzard ( Good Ol' Boys )
TTITLE16=Waylon Jennings - Just To Satisfy You Featuring Waylon Jennings and Willie Nelson
TTITLE17=Waylon Jennings - Women Do Know How To Carry On
TTITLE18=Waylon Jennings - I May Be Used ( But Baby I Ain't Used Up )
TTITLE19=Waylon Jennings - America
TTITLE20=The Highwaymen - Highwayman Featuring Johnny Cash, Waylon Jennings, Willie Nelson and Kris Kristofferson
TTITLE21=Waylon Jennings - Rose In Paradise
EXTD=RCA Records YEAR: 2004
EXTT0=
EXTT1=
EXTT2=
EXTT3=
EXTT4=
EXTT5=
EXTT6=
EXTT7=
EXTT8=
EXTT9=
EXTT10=
EXTT11=
EXTT12=
EXTT13=
EXTT14=
EXTT15=
EXTT16=
EXTT17=
EXTT18=
EXTT19=
EXTT20=
EXTT21=
PLAYORDER=
